<?xml version="1.0" encoding="UTF-8" standalone="no"?>
<!DOCTYPE svg PUBLIC "-//W3C//DTD SVG 1.1//EN" "http://www.w3.org/Graphics/SVG/1.1/DTD/svg11.dtd">
<svg width="128" height="128" viewBox="0 0 256 256" version="1.1" xmlns="http://www.w3.org/2000/svg" xmlns:xlink="http://www.w3.org/1999/xlink" xml:space="preserve" xmlns:serif="http://www.serif.com/" style="fill-rule:evenodd;clip-rule:evenodd;stroke-linejoin:round;stroke-miterlimit:2;">
    <path d="M256,39.829L256,216.171C256,238.153 238.153,256 216.171,256L39.829,256C17.847,256 0,238.153 0,216.171L0,39.829C0,17.847 17.847,0 39.829,0L216.171,0C238.153,0 256,17.847 256,39.829Z" style="fill:url(#_Linear1);"/>
    <path d="M256,39.829L256,216.171C256,238.153 238.153,256 216.171,256L39.829,256C17.847,256 0,238.153 0,216.171L0,39.829C0,17.847 17.847,0 39.829,0L216.171,0C238.153,0 256,17.847 256,39.829ZM248,39.829C248,22.262 233.738,8 216.171,8L39.829,8C22.262,8 8,22.262 8,39.829L8,216.171C8,233.738 22.262,248 39.829,248L216.171,248C233.738,248 248,233.738 248,216.171L248,39.829Z" style="fill:rgb(165,165,165);"/>
    <g id="Layer1" transform="matrix(1.04271,0,0,1.04271,-5.48275,-5.44711)">
        <g transform="matrix(2.85078,0,0,2.85078,39.5506,55.54)">
            <path d="M0.052,49.849L0.052,46.622L7.031,46.624L9.576,48.828L12.238,46.624L62.305,46.624L62.305,49.849L0.052,49.849Z" style="fill:rgb(204,25,58);fill-rule:nonzero;"/>
        </g>
        <g transform="matrix(2.85078,0,0,2.85078,39.5506,55.54)">
            <path d="M48.094,35.578L48.094,22.07C48.094,19.679 46.881,17.952 44.488,16.938C43.761,16.769 43.247,16.697 42.846,16.697C40.727,16.697 39.095,17.784 37.994,19.926C37.712,20.652 37.578,21.519 37.578,22.543L37.607,35.578L33.627,35.578L33.597,21.801C33.597,19.334 32.275,16.697 28.564,16.697C24.139,16.697 23.144,20.51 23.144,21.844L23.144,35.578L19.164,35.578L19.184,22.169C19.184,16.164 22.54,12.72 28.392,12.72C31.048,12.72 33.378,13.777 35.321,15.861L35.623,16.186L35.922,15.857C37.844,13.738 40.228,12.661 43.007,12.661C51.97,12.661 52.074,21.273 52.074,21.639L52.074,35.578L48.094,35.578Z" style="fill:rgb(31,38,47);fill-rule:nonzero;"/>
        </g>
        <g transform="matrix(2.85078,0,0,2.85078,39.5506,55.54)">
            <rect x="58.062" y="22.149" width="4.032" height="13.43" style="fill:rgb(31,38,47);"/>
        </g>
        <g transform="matrix(2.85078,0,0,2.85078,39.5506,55.54)">
            <rect x="58.07" y="13.423" width="4.032" height="5.143" style="fill:rgb(31,38,47);"/>
        </g>
        <g transform="matrix(2.85078,0,0,2.85078,39.5506,55.54)">
            <path d="M7.469,45.02L7.469,16.698L0,16.698L0.078,12.72L7.469,12.72L7.469,10.108C7.469,7.163 8.564,4.637 10.719,2.599C11.511,1.998 12.397,1.506 13.318,1.162C14.378,0.834 15.613,0.661 16.968,0.653L16.968,4.634C14.379,4.658 12.706,5.612 11.993,7.469C11.632,8.418 11.449,9.305 11.449,10.108L11.449,12.72L19.184,12.72C17.683,14.109 16.852,15.991 16.578,16.698L11.449,16.698L11.449,45.013L9.381,46.673L7.469,45.02Z" style="fill:rgb(31,38,47);fill-rule:nonzero;"/>
        </g>
    </g>
    <defs>
        <linearGradient id="_Linear1" x1="0" y1="0" x2="1" y2="0" gradientUnits="userSpaceOnUse" gradientTransform="matrix(2.84217e-14,256,-256,2.84217e-14,128,0)"><stop offset="0" style="stop-color:rgb(205,205,205);stop-opacity:1"/><stop offset="0.5" style="stop-color:rgb(248,248,248);stop-opacity:1"/><stop offset="1" style="stop-color:rgb(204,204,204);stop-opacity:1"/></linearGradient>
    </defs>
</svg>
